<svg preserveAspectRatio="none" width="100%" height="100%" overflow="visible" style="display: block;" viewBox="0 0 318 41.0026" fill="none" xmlns="http://www.w3.org/2000/svg">
<g id="Group">
<path id="Vector" d="M46.3485 40.1208H37.7534V0.879867H46.3485V40.123V40.1208Z" fill="var(--fill-0, #801B01)"/>
<path id="Vector_2" d="M70.8277 40.1208H62.2326V9.00714H51.2071V0.879867H81.8532V9.00714H70.8277V40.123V40.1208Z" fill="var(--fill-0, #801B01)"/>
<path id="Vector_3" d="M107.345 13.3549C107.093 12.2526 106.628 11.314 105.958 10.5685C105.278 9.80941 104.458 9.22532 103.518 8.82987C102.56 8.42759 101.544 8.20714 100.497 8.17532C99.4636 8.14123 98.4846 8.28441 97.5828 8.59805C96.7061 8.90032 95.9883 9.33896 95.4477 9.90259C94.9548 10.4162 94.7163 11.0094 94.7163 11.714C94.7163 12.3458 94.898 12.8367 95.2705 13.2162C95.7066 13.6617 96.2722 14.0276 96.9491 14.3049C97.6896 14.6071 98.4573 14.864 99.2296 15.0662L105.83 16.8617C106.825 17.1276 107.945 17.4844 109.156 17.9208C110.407 18.373 111.623 19.0049 112.767 19.8026C113.951 20.6276 114.939 21.7253 115.702 23.064C116.474 24.4208 116.867 26.1412 116.867 28.1776C116.867 30.3367 116.406 32.2549 115.495 33.8799C114.591 35.4935 113.358 36.8458 111.829 37.9003C110.326 38.9367 108.604 39.7231 106.712 40.2344C104.838 40.7412 102.878 40.9981 100.89 40.9981C97.9872 40.9981 95.3296 40.4753 92.9855 39.4458C90.6255 38.4071 88.6561 36.8958 87.1365 34.9503C85.7941 33.2344 84.7924 31.2071 84.2973 28.9162C84.1746 28.3458 84.1246 27.7617 84.1246 27.1776V26.5799H93.1672C93.6555 28.6026 94.6323 30.1117 96.1496 31.1935C97.6669 32.2753 99.4227 32.8253 101.365 32.8253C102.457 32.8253 103.534 32.6526 104.561 32.3094C105.553 31.9776 106.373 31.489 107 30.8549C107.577 30.2708 107.857 29.5685 107.857 28.7071C107.857 28.398 107.811 28.0958 107.72 27.8071C107.636 27.539 107.491 27.2821 107.289 27.0412C107.082 26.7935 106.771 26.5458 106.362 26.3094C105.928 26.0571 105.362 25.823 104.681 25.6117L94.8276 22.7117C94.0735 22.4958 93.1854 22.1867 92.1927 21.7935C91.1547 21.3821 90.1394 20.7867 89.174 20.0253C88.1814 19.2412 87.3455 18.1958 86.6936 16.9185C86.0372 15.6321 85.7033 14.0049 85.7033 12.0844C85.7033 9.37987 86.4006 7.09123 87.7794 5.27987C89.1399 3.48896 90.9775 2.13896 93.2421 1.26623C95.4613 0.407139 97.944 -0.0133151 100.631 0.000321258C103.339 0.0366849 105.79 0.509412 107.925 1.40259C110.08 2.30714 111.913 3.63896 113.372 5.36623C114.473 6.67305 115.352 8.21169 115.99 9.95714C116.338 10.9071 116.554 11.898 116.674 12.9026L116.729 13.3549H107.345Z" fill="var(--fill-0, #801B01)"/>
<path id="Vector_4" d="M139.445 40.1208H130.85V9.00714H119.825V0.879867H150.471V9.00714H139.445V40.123V40.1208Z" fill="var(--fill-0, #801B01)"/>
<path id="Vector_5" d="M24.168 24.9321C25.5104 24.5049 26.7892 23.889 27.9181 23.048C29.047 22.2071 29.9579 21.2526 30.6098 20.1685C31.7682 18.2435 32.3474 16.2753 32.3474 13.6594C32.3474 11.0435 31.7682 8.77305 30.6098 6.84805C29.4513 4.92305 27.8273 3.44805 25.7353 2.4185C23.6433 1.39123 21.2151 0.877594 18.4508 0.877594H0V40.1208H8.58373V30.0571L24.168 24.9321ZM8.58373 20.5003V9.00714H17.5445C19.8841 9.00714 23.5911 9.35714 23.5911 13.1003C23.5911 15.5799 22.051 16.6094 20.9267 17.1094C20.5337 17.2844 20.1271 17.4208 19.7115 17.5321L8.58146 20.5026L8.58373 20.5003Z" fill="var(--fill-0, #801B01)"/>
<path id="Vector_6" d="M220.026 24.9321C221.369 24.5049 222.648 23.889 223.777 23.048C224.867 22.2344 225.816 21.2526 226.468 20.1685C227.627 18.2435 228.206 16.2753 228.206 13.6594C228.206 11.0435 227.627 8.77305 226.468 6.84805C225.31 4.92305 223.686 3.44805 221.594 2.4185C219.502 1.39123 217.074 0.877594 214.309 0.877594H195.856V40.1208H204.44V30.0571L220.024 24.9321H220.026ZM204.444 20.5003V9.00714H213.405C215.745 9.00714 219.452 9.35714 219.452 13.1003C219.452 15.5799 217.912 16.6094 216.787 17.1094C216.394 17.2844 215.988 17.4208 215.572 17.5321L204.442 20.5026L204.444 20.5003Z" fill="var(--fill-0, #801B01)"/>
<path id="Vector_7" d="M282.854 3.72305C281.414 2.37305 279.826 1.41396 278.096 0.848049C276.362 0.282139 274.538 0.000321258 272.624 0.000321258C269.669 0.000321258 267.097 0.607139 264.91 1.82078C262.723 3.03441 261.026 4.7685 259.822 7.02078C258.618 9.27532 258.016 11.9526 258.016 15.0549V26.4958C258.016 29.3617 258.618 31.8821 259.822 34.064C261.026 36.2435 262.661 37.9458 264.733 39.1685C266.802 40.3912 269.142 41.0026 271.749 41.0026C274.357 41.0026 276.51 40.414 278.588 39.2367C280.667 38.0594 282.336 36.4731 283.595 34.4753C284.853 32.4776 285.482 30.2367 285.482 27.7549C285.482 25.273 284.948 23.0662 283.881 21.1321C282.813 19.198 281.337 17.6753 279.449 16.5617C277.562 15.448 275.377 14.8912 272.898 14.8912C271.313 14.8912 269.775 15.198 268.29 15.8071C267.324 16.2049 266.436 16.7162 265.623 17.339V13.9594C265.623 12.7549 265.909 11.6185 266.484 10.5526C267.059 9.48441 267.87 8.6185 268.919 7.95259C269.968 7.28669 271.204 6.95487 272.626 6.95487C273.537 6.95487 274.423 7.13668 275.279 7.50259C276.135 7.8685 276.894 8.28896 277.55 8.94578L282.856 3.72532L282.854 3.72305ZM277.096 30.8458C276.54 31.7753 275.792 32.5162 274.852 33.0617C273.912 33.6094 272.878 33.8821 271.747 33.8821C270.616 33.8821 269.587 33.6003 268.655 33.0344C267.726 32.4685 266.986 31.7208 266.441 30.7912C265.893 29.8617 265.621 28.848 265.621 27.7526C265.621 26.6571 265.898 25.5867 266.454 24.6458C267.011 23.7071 267.758 22.9571 268.696 22.4003C269.634 21.8435 270.67 21.5662 271.801 21.5662C272.933 21.5662 273.962 21.8435 274.893 22.4003C275.822 22.9571 276.562 23.7049 277.107 24.6458C277.655 25.5867 277.927 26.6208 277.927 27.7526C277.927 28.8844 277.65 29.914 277.094 30.8458H277.096Z" fill="var(--fill-0, #FF3300)"/>
<path id="Vector_8" d="M316.169 6.9435C314.949 4.75714 313.246 3.05259 311.061 1.83214C308.876 0.611685 306.325 0.000321258 303.413 0.000321258C300.501 0.000321258 297.95 0.611685 295.765 1.83214C293.58 3.05259 291.876 4.75714 290.657 6.9435C289.437 9.12987 288.826 11.6821 288.826 14.5958V26.4049C288.826 29.3208 289.437 31.8708 290.657 34.0571C291.876 36.2435 293.58 37.948 295.765 39.1685C297.95 40.389 300.501 41.0003 303.413 41.0003C306.325 41.0003 308.876 40.389 311.061 39.1685C313.246 37.948 314.949 36.2435 316.169 34.0571C317.389 31.8708 318 29.3185 318 26.4049V14.5958C318 11.6799 317.389 9.12987 316.169 6.9435ZM310.407 26.9503C310.407 28.2617 310.098 29.4458 309.478 30.5026C308.857 31.5594 308.019 32.3981 306.965 33.0162C305.909 33.6367 304.726 33.9458 303.413 33.9458C302.1 33.9458 300.919 33.6367 299.863 33.0162C298.806 32.3981 297.968 31.5594 297.35 30.5026C296.73 29.4458 296.421 28.2617 296.421 26.9503V13.9935C296.421 12.6821 296.73 11.498 297.35 10.439C297.968 9.38214 298.806 8.5435 299.863 7.92532C300.919 7.30714 302.102 6.99578 303.413 6.99578C304.723 6.99578 305.907 7.30487 306.965 7.92532C308.022 8.54578 308.86 9.38441 309.478 10.439C310.095 11.4958 310.407 12.6799 310.407 13.9935V26.9503Z" fill="var(--fill-0, #FF3300)"/>
<path id="Vector_9" d="M252.708 22.1299C251.897 20.3321 250.711 18.8185 249.151 17.5867C248.024 16.6958 246.711 16.0412 245.219 15.614L253.803 9.05259V0.879867H227.136C228.354 1.94805 229.398 3.18896 230.25 4.60487C231.072 5.97078 231.681 7.45941 232.076 9.05487H244.408L233.794 16.698L237.13 22.5549C237.605 22.2799 238.096 22.0662 238.607 21.9117C239.118 21.7571 239.647 21.6799 240.192 21.6799C241.998 21.6799 243.479 22.2867 244.637 23.5003C245.796 24.714 246.375 26.1685 246.375 27.8662C246.375 28.998 246.098 30.0276 245.541 30.9594C244.985 31.889 244.238 32.6299 243.297 33.1753C242.357 33.7231 241.323 33.9958 240.192 33.9958C238.879 33.9958 237.662 33.598 236.54 32.8049C235.581 32.1253 234.893 31.2117 234.473 30.0594H226.725C226.959 32.1299 228.569 35.0162 229.891 36.4594C231.213 37.9003 232.767 39.0185 234.555 39.8117C236.342 40.6049 238.221 41.0026 240.19 41.0026C242.67 41.0026 244.949 40.423 247.027 39.264C249.105 38.1049 250.775 36.5367 252.033 34.5571C253.292 32.5776 253.921 30.348 253.921 27.8662C253.921 25.8412 253.514 23.9299 252.703 22.1321L252.708 22.1299Z" fill="var(--fill-0, #FF3300)"/>
<path id="Vector_10" d="M171.445 41.0003C167.536 41.0003 164.106 40.1321 161.256 38.4185C158.398 36.7026 156.17 34.2685 154.63 31.1867C153.101 28.1299 152.327 24.5344 152.327 20.5003C152.327 16.4662 153.101 12.873 154.63 9.81396C156.17 6.73214 158.4 4.29805 161.256 2.58214C164.106 0.868503 167.534 0.000321258 171.445 0.000321258C175.357 0.000321258 178.782 0.868503 181.635 2.58214C184.49 4.29805 186.721 6.73214 188.261 9.81396C189.789 12.873 190.564 16.4685 190.564 20.5003C190.564 24.5321 189.789 28.1276 188.261 31.1867C186.721 34.2685 184.49 36.7026 181.635 38.4185C178.784 40.1321 175.354 41.0003 171.445 41.0003ZM171.223 8.21623C169.074 8.21623 167.268 8.69805 165.851 9.64805C164.383 10.6321 163.266 12.0526 162.528 13.873C161.769 15.7435 161.383 17.973 161.383 20.5003C161.383 23.0276 161.767 25.239 162.525 27.0708C163.263 28.8571 164.383 30.264 165.851 31.2481C167.32 32.2344 169.208 32.7503 171.457 32.7844C173.689 32.8162 175.577 32.3367 177.042 31.3549C178.507 30.3731 179.627 28.9503 180.365 27.1299C181.124 25.2594 181.51 23.0299 181.51 20.5026C181.51 17.9753 181.126 15.7662 180.367 13.9321C179.629 12.1458 178.509 10.7412 177.042 9.75487C175.572 8.7685 173.685 8.25259 171.436 8.2185C171.366 8.2185 171.293 8.2185 171.223 8.2185V8.21623Z" fill="var(--fill-0, #801B01)"/>
<path id="Vector_11" d="M217.26 38.9753L216.14 37.3344C216.265 37.2935 216.36 37.2594 216.404 37.2412C216.647 37.139 216.881 36.9594 217.01 36.7435C217.139 36.5276 217.205 36.3071 217.205 36.014C217.205 35.7208 217.139 35.4662 217.01 35.2526C216.881 35.0367 216.699 34.8731 216.465 34.7571C216.231 34.6412 215.958 34.5844 215.649 34.5844H213.585V38.9776H214.546V37.8321C214.727 37.7776 214.945 37.7094 215.166 37.6412L216.061 38.9731H217.262L217.26 38.9753ZM214.546 35.4981H215.549C215.811 35.4981 216.226 35.5367 216.226 35.9571C216.226 36.2344 216.054 36.3503 215.929 36.4049C215.886 36.4253 215.84 36.439 215.793 36.4526L214.548 36.789V35.4981H214.546Z" fill="var(--fill-0, #801B01)"/>
<path id="Vector_12" d="M215.238 33.3867C217.11 33.3867 218.634 34.9094 218.634 36.7844C218.634 38.6594 217.112 40.1821 215.238 40.1821C213.364 40.1821 211.843 38.6594 211.843 36.7844C211.843 34.9094 213.364 33.3867 215.238 33.3867ZM215.238 32.5662C212.91 32.5662 211.025 34.4549 211.025 36.7821C211.025 39.1094 212.912 40.9981 215.238 40.9981C217.564 40.9981 219.452 39.1094 219.452 36.7821C219.452 34.4549 217.564 32.5662 215.238 32.5662Z" fill="var(--fill-0, #801B01)"/>
</g>
</svg>
