<svg preserveAspectRatio="none" width="100%" height="100%" overflow="visible" style="display: block;" viewBox="0 0 24 24" fill="none" xmlns="http://www.w3.org/2000/svg">
<g id="Outline / Call / Phone Calling ">
<path id="Vector" fill-rule="evenodd" clip-rule="evenodd" d="M4.71766 3.09213C5.94384 1.80119 7.97206 2.04305 8.98565 3.47663L10.2466 5.26012C11.0574 6.40678 10.9889 8.00095 10.0213 9.01963L9.77646 9.27741C9.77578 9.27919 9.77506 9.28113 9.77432 9.28321C9.76138 9.31957 9.72866 9.43536 9.76086 9.65511C9.82761 10.1106 10.1793 11.0363 11.6069 12.5394C13.0391 14.0472 13.9077 14.4025 14.3103 14.4679C14.4839 14.4961 14.5748 14.4716 14.6037 14.4614L15.0124 14.0312C15.8861 13.1113 17.2485 12.93 18.347 13.5623L20.2575 14.662C21.8904 15.6019 22.2704 17.901 20.9655 19.2749L19.5449 20.7705C19.1016 21.2373 18.497 21.6357 17.7499 21.7095C15.9261 21.8895 11.7009 21.655 7.27157 16.9917C3.1384 12.6403 2.35322 8.85536 2.25397 7.00613L2.92007 6.97038L2.25397 7.00613C2.20493 6.09246 2.6122 5.30877 3.14806 4.74462L4.71766 3.09213ZM7.76086 4.3426C7.24851 3.61795 6.32808 3.57471 5.80524 4.12516L4.23564 5.77765C3.90425 6.12654 3.73038 6.52644 3.75181 6.92574C3.83285 8.43556 4.48303 11.8778 8.35915 15.9587C12.4233 20.2375 16.1676 20.3584 17.6026 20.2167C17.8864 20.1887 18.1783 20.0313 18.4573 19.7375L19.8779 18.2419C20.4907 17.5968 20.33 16.4345 19.5092 15.962L17.5987 14.8623C17.086 14.5672 16.4854 14.6584 16.1 15.0642L15.6445 15.5437L15.1173 15.043C15.6445 15.5437 15.6438 15.5445 15.6431 15.5452L15.6417 15.5467L15.6387 15.5497L15.6324 15.5562L15.618 15.5703C15.6077 15.5803 15.5959 15.5913 15.5824 15.6031C15.5556 15.6266 15.5223 15.6535 15.4823 15.6819C15.4022 15.7387 15.2955 15.8012 15.1606 15.8544C14.8846 15.9632 14.5201 16.0216 14.0698 15.9485C13.1923 15.806 12.0422 15.1757 10.5193 13.5724C8.99198 11.9644 8.40742 10.7647 8.27671 9.87257C8.21018 9.4185 8.26342 9.0549 8.36112 8.78033C8.40917 8.64531 8.46591 8.53764 8.51822 8.45588C8.54431 8.41512 8.56918 8.38098 8.59116 8.3532C8.60215 8.33931 8.61243 8.32701 8.62178 8.31625L8.6351 8.30127L8.64121 8.29463L8.64411 8.29152L8.64552 8.29002C8.64621 8.28929 8.6469 8.28857 9.17857 8.79355L8.64691 8.28856L8.93372 7.9866C9.37926 7.51753 9.44399 6.72315 9.02185 6.12608L7.76086 4.3426Z" fill="var(--fill-0, #211D1D)"/>
<path id="Vector_2" d="M13.2595 1.87983C13.3257 1.47094 13.7122 1.19357 14.1211 1.25976C14.1464 1.26461 14.2279 1.27983 14.2705 1.28933C14.3559 1.30834 14.4749 1.33759 14.6233 1.38082C14.9201 1.46726 15.3347 1.60967 15.8323 1.8378C16.8286 2.29456 18.1544 3.09356 19.5302 4.46936C20.906 5.84516 21.705 7.17097 22.1617 8.16725C22.3899 8.66487 22.5323 9.07947 22.6187 9.37625C22.6619 9.52466 22.6912 9.64369 22.7102 9.72901C22.7197 9.77168 22.7267 9.80594 22.7315 9.83125L22.7373 9.86245C22.8034 10.2713 22.5286 10.6739 22.1197 10.7401C21.712 10.8061 21.3279 10.53 21.2601 10.1231C21.258 10.1121 21.2522 10.0828 21.2461 10.0551C21.2337 9.9997 21.2124 9.91188 21.1786 9.79572C21.1109 9.56339 20.9934 9.21806 20.7982 8.79238C20.4084 7.94207 19.7074 6.76789 18.4695 5.53002C17.2317 4.29216 16.0575 3.59117 15.2072 3.20134C14.7815 3.00618 14.4362 2.88865 14.2038 2.82097C14.0877 2.78714 13.9417 2.75363 13.8863 2.7413C13.4793 2.67347 13.1935 2.28755 13.2595 1.87983Z" fill="var(--fill-0, #211D1D)"/>
<path id="Vector_3" fill-rule="evenodd" clip-rule="evenodd" d="M13.4861 5.32931C13.5999 4.93103 14.015 4.70041 14.4133 4.81421L14.2072 5.53535C14.4133 4.81421 14.4136 4.81431 14.414 4.81441L14.4147 4.81462L14.4162 4.81506L14.4196 4.81604L14.4273 4.81835L14.4471 4.82451C14.4622 4.82934 14.481 4.83562 14.5035 4.84358C14.5484 4.85952 14.6077 4.88218 14.6805 4.91339C14.8262 4.97582 15.0253 5.07224 15.2698 5.21695C15.7593 5.50664 16.4275 5.98781 17.2124 6.77279C17.9974 7.55776 18.4786 8.22595 18.7683 8.71541C18.913 8.95992 19.0094 9.15898 19.0718 9.30467C19.103 9.37748 19.1257 9.43683 19.1416 9.48175C19.1496 9.5042 19.1559 9.52303 19.1607 9.5381L19.1669 9.55789L19.1692 9.56564L19.1702 9.56898L19.1706 9.57051L19.1708 9.57124C19.1709 9.5716 19.171 9.57195 18.4499 9.77799L19.171 9.57195C19.2848 9.97023 19.0542 10.3853 18.6559 10.4991C18.261 10.612 17.8496 10.3862 17.7317 9.99414L17.728 9.98336C17.7227 9.96833 17.7116 9.93875 17.6931 9.89555C17.6561 9.80921 17.589 9.66798 17.4774 9.47939C17.2544 9.10265 16.8517 8.5334 16.1518 7.83345C15.4518 7.13349 14.8826 6.73079 14.5058 6.50782C14.3172 6.3962 14.176 6.32911 14.0897 6.2921C14.0465 6.27359 14.0169 6.26256 14.0019 6.25722L13.9911 6.25353C13.599 6.13565 13.3733 5.7242 13.4861 5.32931Z" fill="var(--fill-0, #211D1D)"/>
</g>
</svg>
